<svg height='100px' width='100px'  fill="#000000" xmlns="http://www.w3.org/2000/svg" version="1.1" viewBox="0 0 32 32" x="0px" y="0px"><title>pencil</title><path d="M22.996 1.642c-0.145-0-0.285 0.052-0.397 0.164l-18.186 18.129c-0.070 0.070-0.12 0.156-0.145 0.244l-2.634 9.469c-0.055 0.196-0 0.406 0.143 0.55 0.107 0.105 0.25 0.162 0.395 0.162 0.050 0 0.102-0.007 0.156-0.022l9.465-2.688c0.064-0.018 0.132-0.057 0.211-0.127 0.083-0.074 0.094-0.083 0.037-0.024l0.031-0.033 0.035-0.026c0.059-0.046 0.072-0.059 0.055-0.042l18.059-17.965c0.106-0.105 0.165-0.248 0.165-0.397 0-0.147-0.058-0.291-0.164-0.397l-6.833-6.835c-0.111-0.111-0.249-0.162-0.395-0.162zM22.992 2.993l6.040 6.040-2.531 2.515-6.037-6.035 2.096-2.090zM19.67 6.303l2.673 2.671-14.015 14.017-2.693-2.699 13.603-13.559zM23.135 9.768l2.57 2.568-14.053 13.989-2.533-2.539 13.585-13.585zM5.104 21.347l5.467 5.483-7.592 2.154 1.844-6.627z"></path></svg>